<?xml version="1.0" encoding="iso-8859-1"?>
<!-- Uploaded to: SVG Repo, www.svgrepo.com, Generator: SVG Repo Mixer Tools -->
<svg version="1.1" id="Layer_1" xmlns="http://www.w3.org/2000/svg" xmlns:xlink="http://www.w3.org/1999/xlink" 
	 width="50px" height="25px" viewBox="0 0 473.935 473.935" xml:space="preserve">
<circle style="fill:#344E5D;" cx="236.967" cy="236.967" r="236.967"/>
<path style="fill:#E0E4E0;" d="M277.397,321.038c0-7.824-4.382-14.17-9.789-14.17h-31.046v167.056c0.131,0,0.262,0.011,0.393,0.011
	c7.177,0,14.267-0.378,21.283-0.999V347.013C258.24,347.013,277.397,328.866,277.397,321.038z"/>
<path style="fill:#DDDDDC;" d="M236.563,306.868h-31.061c-5.399,0-9.781,6.346-9.781,14.17c0,7.828,19.165,25.972,19.165,25.972
	v125.866c7.139,0.662,14.365,1.036,21.676,1.048L236.563,306.868L236.563,306.868z"/>
<g>
	<path style="fill:#E5F2E6;" d="M138.805,118.424c-2.612,0-4.733,2.118-4.733,4.733V270.43c3.098,1.856,6.26,3.618,9.463,5.306
		V123.153C143.539,120.542,141.417,118.424,138.805,118.424z"/>
	<path style="fill:#E5F2E6;" d="M334.318,118.424c-2.612,0-4.73,2.118-4.73,4.733v153.204c3.199-1.688,6.357-3.45,9.456-5.302
		V123.153C339.047,120.542,336.926,118.424,334.318,118.424z"/>
	<path style="fill:#E5F2E6;" d="M236.563,118.424c-2.612,0-4.733,2.118-4.733,4.733v163.804c1.587,0.037,3.162,0.12,4.756,0.12
		c1.579,0,3.136-0.082,4.707-0.12V123.153C241.293,120.542,239.171,118.424,236.563,118.424z"/>
</g>
<rect x="79.58" y="146.379" style="fill:#A2D4DE;" width="309.82" height="168.642"/>
<path style="fill:#69C6D4;" d="M219.68,237.162c64.486-3.525,124.5-0.486,168.792,10.526v-3.349
	c-39.307-10.66-92.359-15.715-150.787-15.715c-62.63,0-119.082,5.807-159.045,18.103v13.078
	C113.829,247.751,163.46,240.238,219.68,237.162z"/>
<path style="fill:#70BFC8;" d="M237.69,245.349c58.428,0,111.479,5.059,150.787,15.715v-13.377
	c-44.292-11.008-104.306-14.05-168.792-10.526c-56.22,3.076-105.851,10.589-141.035,22.642v3.645
	C118.607,251.153,175.06,245.349,237.69,245.349z"/>
<path style="fill:#F3ED73;" d="M78.645,263.448v2.612c43.495-11.611,103.416-15.39,168.324-12.621
	c55.842,2.384,105.53,9.194,141.503,20.61v-12.984c-39.307-10.66-92.359-15.715-150.787-15.715
	C175.06,245.349,118.607,251.153,78.645,263.448z"/>
<path style="fill:#F3EA83;" d="M222.408,267.246c62.391-4.423,121.159-2.556,166.068,7.05v-0.247
	c-35.974-11.416-85.664-18.226-141.503-20.61c-64.913-2.769-124.83,1.014-168.324,12.621v24.98c8.378-2.208,17.339-4.18,26.855-5.89
	C137.23,276.398,177.555,270.43,222.408,267.246z"/>
<path style="fill:#E7DD7F;" d="M388.476,294.845v-20.55c-44.909-9.601-103.677-11.469-166.068-7.05
	c-44.853,3.184-85.178,9.152-116.908,17.901c35.304-6.346,77.863-9.302,123.647-9.149
	C292.129,276.211,348.742,282.277,388.476,294.845z"/>
<g>
	<path style="fill:#F3ED73;" d="M105.5,285.147c-9.515,1.71-18.477,3.682-26.855,5.89v3.046
		C86.701,290.842,95.674,287.859,105.5,285.147z"/>
	<path style="fill:#F3ED73;" d="M229.147,275.998c-45.785-0.153-88.344,2.803-123.647,9.149c-9.826,2.713-18.795,5.691-26.855,8.939
		v21.392h309.831v-20.632C348.742,282.277,292.129,276.211,229.147,275.998z"/>
</g>
<path style="fill:#C2C4C1;" d="M393.15,322.669H75.842c-3.098,0-5.613-2.514-5.613-5.613v-172.71c0-3.098,2.514-5.613,5.613-5.613
	H393.15c3.098,0,5.613,2.514,5.613,5.613v172.706C398.762,320.155,396.248,322.669,393.15,322.669z M81.455,311.444h306.082V149.96
	H81.455V311.444z"/>
<path style="fill:#996B39;" d="M317.835,268.368c-0.524,0-1.003-0.344-1.152-0.868l-6.417-22.335
	c-0.183-0.636,0.187-1.302,0.823-1.482c0.636-0.18,1.302,0.183,1.482,0.819l6.413,22.338c0.183,0.636-0.183,1.298-0.819,1.482
	C318.056,268.354,317.94,268.368,317.835,268.368z"/>
<path style="fill:#E3B071;" d="M283.452,287.822c-0.232,0-0.457-0.064-0.659-0.198c-0.554-0.363-0.707-1.104-0.344-1.658
	l48.505-73.825c0.367-0.554,1.111-0.707,1.658-0.344c0.554,0.367,0.707,1.104,0.348,1.658l-48.509,73.825
	C284.222,287.631,283.841,287.822,283.452,287.822z"/>
<g>
	<path style="fill:#996B39;" d="M351.414,277.431c-0.509,0-0.984-0.329-1.145-0.842l-19.738-63.113
		c-0.198-0.636,0.153-1.31,0.786-1.504c0.64-0.198,1.306,0.153,1.5,0.786l19.738,63.116c0.198,0.629-0.153,1.302-0.782,1.497
		C351.657,277.409,351.537,277.431,351.414,277.431z"/>
	<path style="fill:#996B39;" d="M354.336,278.292c-0.101,0-0.206-0.015-0.303-0.037l-37.298-9.661
		c-0.644-0.165-1.025-0.819-0.861-1.463c0.168-0.636,0.823-1.022,1.463-0.857l37.302,9.658c0.64,0.165,1.022,0.819,0.857,1.463
		C355.35,277.936,354.867,278.292,354.336,278.292z"/>
</g>
<path style="fill:#AA7243;" d="M351.418,277.431c-0.086,0-0.176-0.011-0.262-0.03l-35.18-7.865
	c-0.651-0.146-1.051-0.786-0.913-1.433c0.146-0.644,0.789-1.051,1.433-0.906l35.184,7.861c0.647,0.146,1.055,0.786,0.909,1.437
	C352.465,277.049,351.968,277.431,351.418,277.431z"/>
<g>
	<path style="fill:#B17B48;" d="M321.281,295.612c-0.094,0-0.198-0.008-0.299-0.037l-37.294-9.654
		c-0.644-0.168-1.029-0.827-0.861-1.463c0.168-0.644,0.819-1.022,1.463-0.861l37.302,9.654c0.636,0.168,1.022,0.827,0.857,1.463
		C322.303,295.257,321.816,295.612,321.281,295.612z"/>
	<path style="fill:#B17B48;" d="M318.366,270.101c-0.097,0-0.195-0.011-0.292-0.037l-34.645-8.662
		c-0.647-0.161-1.036-0.808-0.876-1.452c0.161-0.644,0.812-1.033,1.456-0.872l34.649,8.662c0.644,0.161,1.033,0.812,0.868,1.452
		C319.395,269.734,318.905,270.101,318.366,270.101z"/>
</g>
<path style="fill:#D1E8F8;" d="M330.16,214.797c-10.23,43.266-29.979,46.986-39.85,45.856l-5.923-1.478l-0.602,2.398l31.117,7.794
	l1.47-2.2l20.385,4.733c22.799-6.08,27.386-53.107,27.386-53.107L330.16,214.797z"/>
<g>
	<path style="fill:#A6D0EE;" d="M310.041,268.032l4.861,1.332l1.47-2.2l20.385,4.733c22.799-6.08,27.386-53.107,27.386-53.107
		l-7.529-0.797C355.612,278.228,310.041,268.032,310.041,268.032z"/>
	<path style="fill:#A6D0EE;" d="M330.16,214.797c-10.23,43.266-29.979,46.986-39.85,45.856l-5.923-1.478l-0.602,2.398l7.465,1.796
		c0,0,33.077,8.748,45.579-47.775L330.16,214.797z"/>
</g>
<path style="fill:#E3B071;" d="M319.698,298.22c-0.202,0-0.404-0.049-0.595-0.157c-0.573-0.329-0.771-1.063-0.445-1.639
	l45.309-79.158c0.329-0.572,1.063-0.778,1.639-0.445c0.576,0.329,0.775,1.063,0.445,1.639l-45.313,79.154
	C320.522,298.003,320.114,298.22,319.698,298.22z"/>
<path style="fill:#A6D0EE;" d="M343.687,216.459l6.795,0.737c0,0-2.533,51.435-45.444,49.571l-6.133-1.467
	C298.909,265.304,339.088,265.832,343.687,216.459z"/>
<circle style="fill:#F8CC19;" cx="124.931" cy="190.289" r="29.309"/>
<circle style="fill:#F8D12E;" cx="126.809" cy="189.817" r="24.61"/>
<circle style="fill:#F8D958;" cx="128.044" cy="188.474" r="18.963"/>
<ellipse style="fill:#E5F2E6;" cx="236.182" cy="120.785" rx="24.045" ry="7.884"/>
<g>
	<polygon style="opacity:0.2;fill:#FFFFFF;enable-background:new    ;" points="289.379,304.473 183.748,304.473 212.126,120.789 
		261.001,120.789 	"/>
	<polygon style="opacity:0.15;fill:#FFFFFF;enable-background:new    ;" points="289.379,304.473 212.126,120.789 261.001,120.789 	
		"/>
	<polygon style="opacity:0.15;fill:#FFFFFF;enable-background:new    ;" points="183.748,304.473 212.126,120.789 261.001,120.789 	
		"/>
</g>
<ellipse style="fill:#E5F2E6;" cx="333.917" cy="120.785" rx="24.045" ry="7.884"/>
<g>
	<polygon style="opacity:0.2;fill:#FFFFFF;enable-background:new    ;" points="395.021,296.189 281.502,296.189 309.88,120.789 
		358.755,120.789 	"/>
	<polygon style="opacity:0.15;fill:#FFFFFF;enable-background:new    ;" points="395.021,296.189 309.88,120.789 358.755,120.789 	
		"/>
	<polygon style="opacity:0.15;fill:#FFFFFF;enable-background:new    ;" points="281.502,296.189 309.88,120.789 358.755,120.789 	
		"/>
</g>
<ellipse style="fill:#E5F2E6;" cx="138.409" cy="120.785" rx="24.045" ry="7.884"/>
<g>
	<polygon style="opacity:0.2;fill:#FFFFFF;enable-background:new    ;" points="191.624,296.189 74.162,296.189 114.368,120.789 
		163.247,120.789 	"/>
	<polygon style="opacity:0.15;fill:#FFFFFF;enable-background:new    ;" points="191.624,296.189 114.368,120.789 163.247,120.789 	
		"/>
	<polygon style="opacity:0.15;fill:#FFFFFF;enable-background:new    ;" points="74.162,296.189 114.368,120.789 163.247,120.789 	
		"/>
</g>
</svg>